<svg width="32" height="32" viewBox="0 0 32 32" fill="none" xmlns="http://www.w3.org/2000/svg">
<g clip-path="url(#clip0_256_7244)">
<path d="M19 27H5V13H9V11H5C3.9 11 3 11.9 3 13V19H0V21H3V27C3 28.1 3.9 29 5 29H19C20.1 29 21 28.1 21 27V23H19V27Z" fill="white" fill-opacity="0.64"/>
<path d="M21 19H11V21H21V19Z" fill="white" fill-opacity="0.64"/>
<path d="M21 15H11V17H21V15Z" fill="white" fill-opacity="0.64"/>
<path d="M21 11H11V13H21V11Z" fill="white" fill-opacity="0.64"/>
<path d="M29 11V5C29 3.9 28.1 3 27 3H13C11.9 3 11 3.9 11 5V9H13V5H27V19H23V21H27C28.1 21 29 20.1 29 19V13H32V11H29Z" fill="white" fill-opacity="0.64"/>
</g>
<defs>
<clipPath id="clip0_256_7244">
<rect width="32" height="32" fill="white"/>
</clipPath>
</defs>
</svg>
